<svg width="27" height="26" viewBox="0 0 27 26" fill="none" xmlns="http://www.w3.org/2000/svg">
<path d="M16.3216 9.0481L16.5648 9.58644L17.1537 9.63322L23.4527 10.1337C23.4528 10.1337 23.4529 10.1337 23.4529 10.1337C23.4736 10.1354 23.4932 10.143 23.5095 10.1557C23.5257 10.1683 23.5378 10.1853 23.5445 10.2045C23.558 10.2454 23.5463 10.2891 23.5148 10.3177C23.5148 10.3178 23.5147 10.3179 23.5146 10.3179L18.5033 14.8271L18.039 15.2448L18.2107 15.8452L20.2309 22.9133C20.2309 22.9135 20.231 22.9137 20.231 22.9139C20.2367 22.9346 20.236 22.9564 20.229 22.9767C20.222 22.9971 20.2088 23.0149 20.1913 23.0277C20.1738 23.0404 20.1528 23.0475 20.1311 23.048C20.1096 23.0485 20.0885 23.0424 20.0706 23.0307C20.0704 23.0306 20.0702 23.0305 20.07 23.0303L14.0548 19.0208L13.5002 18.651L12.9455 19.0208L6.92876 23.0314L6.92766 23.0321C6.91016 23.0438 6.88953 23.05 6.86845 23.0498C6.84736 23.0497 6.82682 23.0432 6.8095 23.0312C6.79219 23.0192 6.77888 23.0024 6.7713 22.9828C6.76372 22.9632 6.7622 22.9418 6.76694 22.9213L6.76709 22.9207L8.41355 15.7922L8.5402 15.2438L8.1372 14.851L3.48181 10.3134L3.48174 10.3133C3.4673 10.2992 3.45724 10.2813 3.45273 10.2617C3.44823 10.2421 3.44947 10.2216 3.45631 10.2027L2.51827 9.86366L3.45631 10.2027C3.46315 10.1837 3.47531 10.1672 3.49135 10.1549C3.50739 10.1427 3.52663 10.1353 3.54678 10.1337L3.54701 10.1337L9.84665 9.63322L10.4356 9.58643L10.6788 9.04804L13.4048 3.01333L13.4061 3.01055C13.4142 2.99249 13.4273 2.97713 13.444 2.96634C13.4607 2.95556 13.4801 2.94982 13.5 2.94983C13.5198 2.94984 13.5393 2.9556 13.5559 2.9664C13.5726 2.97721 13.5857 2.99258 13.5938 3.01066L13.5938 3.01066L13.5955 3.0145L16.3216 9.0481Z" stroke="white" stroke-width="2"/>
</svg>
