<svg width="26" height="26" viewBox="0 0 26 26" fill="none" xmlns="http://www.w3.org/2000/svg">
<path d="M23.0095 10.1558C23.0256 10.1683 23.0377 10.1853 23.0444 10.2045C23.0579 10.2454 23.0463 10.289 23.015 10.3176C23.0148 10.3177 23.0147 10.3178 23.0145 10.318L18.0032 14.8271L17.539 15.2448L17.7106 15.8453L19.7308 22.9134C19.7309 22.9136 19.7309 22.9138 19.731 22.914C19.7367 22.9346 19.736 22.9565 19.729 22.9767C19.7219 22.9971 19.7088 23.0149 19.6912 23.0277C19.6737 23.0405 19.6527 23.0476 19.631 23.048C19.6095 23.0485 19.5884 23.0424 19.5704 23.0307C19.5703 23.0306 19.5701 23.0305 19.5699 23.0304L13.5547 19.0208L13.0001 18.6511L12.4455 19.0208L6.4287 23.0314L6.4276 23.0321C6.4101 23.0438 6.38947 23.05 6.36838 23.0499C6.3473 23.0497 6.32677 23.0432 6.30944 23.0312C6.29212 23.0193 6.27882 23.0024 6.27124 22.9828C6.26366 22.9632 6.26214 22.9418 6.26688 22.9214L6.26703 22.9207L7.91349 15.7922L8.04014 15.2438L7.63714 14.851L2.98175 10.3134L2.98168 10.3133C2.96724 10.2993 2.95717 10.2813 2.95267 10.2617C2.94817 10.2421 2.94941 10.2216 2.95625 10.2027C2.96309 10.1838 2.97525 10.1672 2.99129 10.155C3.00733 10.1427 3.02657 10.1354 3.04671 10.1338L3.04695 10.1338L9.34659 9.63325L9.93551 9.58647L10.1787 9.04807L12.9048 3.01336L12.906 3.01058C12.9141 2.99252 12.9273 2.97716 12.9439 2.96637C12.9606 2.95559 12.98 2.94985 12.9999 2.94986C13.0198 2.94987 13.0392 2.95563 13.0559 2.96643C13.0725 2.97724 13.0857 2.99261 13.0937 3.01069L13.0937 3.01069L13.0955 3.01453L15.8215 9.04813L16.0647 9.58647L16.6536 9.63325L22.9527 10.1337C22.9734 10.1354 22.9931 10.143 23.0095 10.1558Z" stroke="#939393" stroke-width="2"/>
</svg>
