<svg width="21" height="21" viewBox="0 0 21 21" fill="none" xmlns="http://www.w3.org/2000/svg">
<path d="M13.6377 9.4745H8.701C8.58609 9.4745 8.47231 9.49713 8.36615 9.54111C8.25999 9.58508 8.16353 9.64953 8.08228 9.73078C8.00103 9.81203 7.93657 9.90849 7.8926 10.0147C7.84863 10.1208 7.826 10.2346 7.826 10.3495C7.826 10.4644 7.84863 10.5782 7.8926 10.6843C7.93657 10.7905 8.00103 10.887 8.08228 10.9682C8.16353 11.0495 8.25999 11.1139 8.36615 11.1579C8.47231 11.2019 8.58609 11.2245 8.701 11.2245H13.6377L12.656 12.2063C12.4919 12.3704 12.3998 12.5931 12.3999 12.8252C12.4 13.0573 12.4922 13.2799 12.6564 13.4439C12.8206 13.608 13.0433 13.7001 13.2754 13.7001C13.5075 13.7 13.7301 13.6077 13.8941 13.4435L16.3686 10.969C16.4503 10.8879 16.5151 10.7915 16.5593 10.6852C16.6036 10.579 16.6263 10.465 16.6263 10.3499C16.6263 10.2349 16.6036 10.1209 16.5593 10.0147C16.5151 9.90841 16.4503 9.81196 16.3686 9.73088L13.895 7.25638C13.7309 7.09219 13.5084 6.9999 13.2762 6.99982C13.0441 6.99974 12.8215 7.09187 12.6573 7.25594C12.4931 7.42001 12.4008 7.64258 12.4008 7.87469C12.4007 8.1068 12.4928 8.32944 12.6569 8.49362L13.6377 9.4745ZM5.25 2.625C5.01793 2.625 4.79537 2.71719 4.63128 2.88128C4.46718 3.04538 4.375 3.26794 4.375 3.5V17.5C4.375 17.7321 4.46718 17.9546 4.63128 18.1187C4.79537 18.2828 5.01793 18.375 5.25 18.375C5.48206 18.375 5.70462 18.2828 5.86871 18.1187C6.03281 17.9546 6.125 17.7321 6.125 17.5V3.5C6.125 3.26794 6.03281 3.04538 5.86871 2.88128C5.70462 2.71719 5.48206 2.625 5.25 2.625V2.625Z" fill="white"/>
</svg>
